<!-- <svg width="168" height="154" viewBox="0 0 168 154" fill="none" xmlns="http://www.w3.org/2000/svg">
<path d="M47.8052 72.9999C47.8052 82.9411 55.864 90.9999 65.8052 90.9999L92.8052 90.9999C95.5666 90.9999 97.8052 88.7614 97.8052 85.9999L97.8052 51.9999C97.8052 46.4771 93.328 41.9999 87.8052 41.9999L52.8052 41.9999C50.0437 41.9999 47.8052 44.2385 47.8052 46.9999L47.8052 72.9999Z" fill="#FFF1DA"/>
<path d="M96.3891 86.9413C95.0307 87.2456 93.7077 87.8091 92.5022 88.5965C89.3614 90.5978 87.5341 93.4546 88.421 94.9767C89.308 96.4988 92.5731 96.1095 95.7138 94.1082C96.9356 93.3486 98.021 92.3779 98.9032 91.2559C99.3125 90.7138 99.386 90.0383 99.0908 89.5334L97.9386 87.556C97.6454 87.0495 97.0374 86.8086 96.3891 86.9413Z" fill="#D5D6DB"/>
<path d="M88.5021 59.9482C87.5171 60.169 86.5577 60.5778 85.6834 61.1488C83.4066 62.5996 82.0808 64.671 82.7234 65.7738C83.366 66.8766 85.7345 66.5941 88.0111 65.1434C88.897 64.5923 89.6839 63.8881 90.3237 63.0744C90.6202 62.6815 90.6733 62.1922 90.4593 61.8261L89.6251 60.3943C89.4128 60.0271 88.9722 59.8521 88.5021 59.9482Z" fill="#D5D6DB"/>
<path d="M75.688 61.0787C75.4687 61.0542 75.2349 61.1126 75.0322 61.2421L69.684 64.6503C69.2366 64.9346 69.0576 65.4819 69.2845 65.8731C69.3364 65.9627 69.4075 66.0393 69.4937 66.0983L82.6753 75.1832L100.509 63.8185L75.688 61.0787Z" fill="#029BC5"/>
<path d="M132.065 59.794L83.5329 90.3461L54.8201 101.772L40.177 104.682L38.566 101.945L119.461 51.9985C121.872 50.5036 124.558 49.586 127.246 49.3389C128.424 49.237 129.587 49.2762 130.708 49.455C131.702 49.6057 132.645 49.8964 133.508 50.3185C134.472 50.7967 136.307 50.8519 136.901 51.8047C136.903 51.8032 138.305 56.1776 132.065 59.794Z" fill="#E1E6E9"/>
<path d="M84.1762 86.3036L63.1809 119.774C62.9187 120.244 63.0744 120.77 63.5283 120.949C63.8068 121.059 64.1477 121.016 64.4341 120.834L69.7781 117.444C70.806 116.791 71.7161 115.963 72.4523 115.009L113.169 67.1404L84.1762 86.3036Z" fill="#029BC5"/>
<path d="M31.1966 85.1861C30.8464 85.0664 30.4296 85.1285 30.0778 85.3525L25.6603 88.1659C25.0584 88.549 24.8185 89.2854 25.1244 89.8111C25.1827 89.911 25.2584 89.999 25.3491 90.0714L37.7259 99.9838L50.7389 91.8557L31.1966 85.1861Z" fill="#029BC5"/>
<path d="M41.8743 101.771L35.2128 111.1C35.1152 111.234 35.1381 111.403 35.2641 111.476C35.3549 111.529 35.4789 111.519 35.5797 111.452L39.708 108.836C39.74 108.815 39.7691 108.79 39.7931 108.761L49.5266 96.9261L41.8743 101.771Z" fill="#029BC5"/>
<path d="M129.911 49.8572C128.757 49.6718 127.559 49.6322 126.346 49.7388C125.165 51.3899 124.411 53.2446 124.157 55.118C124.139 55.4943 124.442 55.7652 124.835 55.723C124.957 55.7098 125.079 55.6669 125.188 55.5981L132.796 50.7538C131.906 50.3152 130.935 50.0134 129.911 49.8572Z" fill="#029BC5"/>
<path d="M113.332 58.7653L118.299 55.6284L122.926 63.4974L117.959 66.6343L113.332 58.7653Z" fill="#D5D6DB"/>
<path d="M110.207 61.8775C109.608 62.2567 109.369 62.9855 109.673 63.5052L110.165 64.3472C110.489 64.8536 111.228 64.9427 111.816 64.546C112.376 64.1682 112.602 63.4815 112.332 62.9745L111.84 62.1325C111.536 61.6132 110.805 61.499 110.207 61.8775Z" fill="#3A556A"/>
<path d="M105.742 64.65C105.144 65.0291 104.904 65.7579 105.208 66.2777L105.701 67.1196C106.025 67.6261 106.764 67.7152 107.352 67.3185C107.912 66.9407 108.137 66.254 107.868 65.747L107.375 64.905C107.071 64.3859 106.341 64.2716 105.742 64.65Z" fill="#3A556A"/>
<path d="M101.276 67.4233C100.679 67.803 100.44 68.5309 100.744 69.0501L101.236 69.8921C101.56 70.3986 102.299 70.4876 102.887 70.0909C103.447 69.7131 103.673 69.0265 103.403 68.5195L102.911 67.6775C102.607 67.1578 101.875 67.044 101.276 67.4233Z" fill="#3A556A"/>
<path d="M96.8121 70.1957C96.2142 70.5754 95.9758 71.3033 96.2794 71.8226L96.7717 72.6646C97.0956 73.171 97.8348 73.2601 98.4231 72.8634C98.9829 72.4856 99.2084 71.7989 98.9386 71.2919L98.4463 70.4499C98.1422 69.9304 97.4106 69.8166 96.8121 70.1957Z" fill="#3A556A"/>
<path d="M92.3481 72.9684C91.7499 73.3482 91.5113 74.0764 91.8151 74.5959L92.3077 75.4383C92.6114 75.9575 93.3427 76.0712 93.941 75.6923C94.5394 75.3133 94.7783 74.5851 94.4746 74.0658L93.982 73.2235C93.6791 72.7037 92.9481 72.5892 92.3494 72.9676C92.3489 72.9679 92.3486 72.9681 92.3481 72.9684Z" fill="#3A556A"/>
<path d="M87.8837 75.7408C87.2855 76.1207 87.047 76.8489 87.3508 77.3684L87.8434 78.2107C88.147 78.73 88.8783 78.8437 89.4767 78.4647C90.075 78.0857 90.3139 77.3575 90.0103 76.8383L89.5177 75.9959C89.2148 75.4762 88.4838 75.3617 87.885 75.74C87.8845 75.7404 87.884 75.7407 87.8837 75.7408Z" fill="#3A556A"/>
<path d="M83.4191 78.5134C82.8209 78.8932 82.5824 79.6214 82.8862 80.1409L83.3788 80.9832C83.6832 81.502 84.4148 81.6145 85.0125 81.2351C85.6092 80.8562 85.8476 80.1296 85.5454 79.6109L85.0528 78.7686C84.7492 78.249 84.018 78.1347 83.4191 78.5134Z" fill="#3A556A"/>
<path d="M78.9545 81.2859C78.3563 81.6657 78.1178 82.3939 78.4216 82.9134L78.9142 83.7558C79.2186 84.2746 79.9502 84.3871 80.5479 84.0076C81.1446 83.6288 81.383 82.9021 81.0808 82.3835L80.5882 81.5411C80.2846 81.0215 79.5534 80.9072 78.9545 81.2859Z" fill="#3A556A"/>
<path d="M74.4903 84.0583C73.8921 84.4381 73.6535 85.1663 73.9573 85.6858L74.4499 86.5281C74.7543 87.0469 75.486 87.1595 76.0837 86.78C76.6804 86.4011 76.9188 85.6745 76.6165 85.1559L76.1239 84.3136C75.8201 83.7941 75.0889 83.6798 74.4903 84.0583Z" fill="#3A556A"/>
<path d="M70.0245 86.8315C69.4261 87.2105 69.1872 87.9387 69.4909 88.458L69.4915 88.4591L69.9841 89.3014C70.2885 89.8202 71.0201 89.9328 71.6179 89.5533C72.2146 89.1744 72.453 88.4478 72.1507 87.9291L71.6581 87.0868C71.3546 86.5671 70.6233 86.4528 70.0245 86.8315Z" fill="#3A556A"/>
<path d="M65.5612 89.6032C64.9629 89.9822 64.724 90.7104 65.0276 91.2296L65.0283 91.2307L65.5209 92.073C65.8253 92.5918 66.5569 92.7044 67.1546 92.3249C67.7514 91.9461 67.9898 91.2194 67.6875 90.7008L67.1949 89.8585C66.8911 89.339 66.1599 89.2247 65.5612 89.6032Z" fill="#3A556A"/>
</svg> -->
<svg width="93" height="79" viewBox="0 0 93 79" fill="none" xmlns="http://www.w3.org/2000/svg">
<path d="M26.4519 28.3379C26.4519 38.2791 34.5108 46.338 44.4519 46.338L49.0176 46.3379C51.779 46.3379 54.0176 44.0994 54.0176 41.3379L54.0176 31.4116C54.0176 25.8888 49.5404 21.4116 44.0176 21.4116L31.4519 21.4116C28.6905 21.4116 26.4519 23.6502 26.4519 26.4116L26.4519 28.3379Z" fill="#FFF1DA"/>
<path d="M53.2369 44.2734C52.4881 44.4281 51.7587 44.7148 51.094 45.1154C49.3625 46.1334 48.3551 47.5867 48.844 48.361C49.333 49.1353 51.1331 48.9372 52.8646 47.9192C53.5382 47.5328 54.1366 47.0389 54.623 46.4682C54.8487 46.1924 54.8892 45.8488 54.7264 45.592L54.0912 44.5861C53.9296 44.3284 53.5943 44.2059 53.2369 44.2734Z" fill="#D5D6DB"/>
<path d="M48.8887 30.5419C48.3456 30.6542 47.8167 30.8622 47.3347 31.1527C46.0795 31.8907 45.3486 32.9444 45.7028 33.5054C46.0571 34.0664 47.3629 33.9227 48.618 33.1847C49.1064 32.9044 49.5402 32.5461 49.893 32.1322C50.0564 31.9324 50.0857 31.6834 49.9677 31.4972L49.5078 30.7689C49.3907 30.5821 49.1478 30.493 48.8887 30.5419Z" fill="#D5D6DB"/>
<path d="M41.8241 31.117C41.7032 31.1046 41.5743 31.1343 41.4626 31.2002L38.514 32.9339C38.2674 33.0785 38.1687 33.3569 38.2938 33.5559C38.3224 33.6015 38.3616 33.6405 38.4091 33.6705L45.6763 38.292L55.5082 32.5108L41.8241 31.117Z" fill="#029BC5"/>
<path d="M72.9053 30.4636L46.1491 46.0054L30.3194 51.8176L22.2464 53.2982L21.3583 51.9058L65.9568 26.4979C67.2859 25.7375 68.7666 25.2707 70.2489 25.145C70.8981 25.0932 71.5392 25.1131 72.1573 25.2041C72.7053 25.2807 73.2252 25.4286 73.7013 25.6434C74.2327 25.8866 75.2442 25.9147 75.5718 26.3994C75.5729 26.3986 76.3458 28.6239 72.9053 30.4636V30.4636Z" fill="#E1E6E9"/>
<path d="M46.5039 43.9489L34.9289 60.9751C34.7843 61.2143 34.8701 61.4821 35.1204 61.5733C35.2739 61.6293 35.4619 61.6072 35.6198 61.5146L38.566 59.79C39.1327 59.4581 39.6344 59.0366 40.0403 58.5516L62.4878 34.2006L46.5039 43.9489Z" fill="#029BC5"/>
<path d="M17.2955 43.3805C17.1024 43.3196 16.8726 43.3512 16.6786 43.4652L14.2432 44.8963C13.9114 45.0912 13.7791 45.4658 13.9478 45.7332C13.9799 45.7841 14.0216 45.8288 14.0716 45.8656L20.8951 50.9081L28.0694 46.7733L17.2955 43.3805Z" fill="#029BC5"/>
<path d="M23.1821 51.817L19.5096 56.563C19.4557 56.6312 19.4684 56.7168 19.5378 56.7541C19.5879 56.781 19.6563 56.7761 19.7119 56.7418L21.9878 55.411C22.0055 55.4007 22.0215 55.3877 22.0347 55.3729L27.401 49.3526L23.1821 51.817Z" fill="#029BC5"/>
<path d="M71.7183 25.4086C71.0818 25.3143 70.4215 25.2942 69.7528 25.3484C69.1018 26.1883 68.6857 27.1318 68.546 28.0848C68.5358 28.2762 68.7031 28.414 68.9197 28.3926C68.987 28.3858 69.054 28.364 69.1142 28.329L73.3085 25.8647C72.8181 25.6416 72.2827 25.4881 71.7183 25.4086Z" fill="#029BC5"/>
<path d="M62.5779 29.9402L65.3163 28.3444L67.867 32.3474L65.1286 33.9432L62.5779 29.9402Z" fill="#D5D6DB"/>
<path d="M60.8546 31.5234C60.5246 31.7163 60.3927 32.087 60.5603 32.3514L60.8317 32.7797C61.0102 33.0373 61.4178 33.0826 61.7421 32.8808C62.0508 32.6887 62.1751 32.3394 62.0263 32.0814L61.7549 31.6531C61.5875 31.389 61.1846 31.3308 60.8546 31.5234V31.5234Z" fill="#3A556A"/>
<path d="M58.3934 32.9337C58.0635 33.1266 57.9316 33.4974 58.0991 33.7617L58.3705 34.19C58.549 34.4477 58.9566 34.493 59.2809 34.2912C59.5896 34.099 59.7139 33.7497 59.5651 33.4918L59.2937 33.0634C59.1262 32.7994 58.7233 32.7412 58.3934 32.9337V32.9337Z" fill="#3A556A"/>
<path d="M55.9314 34.3446C55.6018 34.5377 55.4704 34.908 55.6378 35.1721L55.9092 35.6004C56.0877 35.858 56.4953 35.9034 56.8196 35.7016C57.1283 35.5094 57.2526 35.1601 57.1038 34.9022L56.8324 34.4739C56.6649 34.2095 56.2616 34.1516 55.9314 34.3446V34.3446Z" fill="#3A556A"/>
<path d="M53.4701 35.7549C53.1405 35.948 53.0091 36.3183 53.1765 36.5825L53.4479 37.0108C53.6264 37.2684 54.034 37.3137 54.3583 37.1119C54.667 36.9197 54.7913 36.5704 54.6425 36.3125L54.3711 35.8842C54.2034 35.6199 53.8001 35.562 53.4701 35.7549V35.7549Z" fill="#3A556A"/>
<path d="M51.0091 37.1653C50.6792 37.3585 50.5477 37.729 50.7152 37.9933L50.9868 38.4217C51.1542 38.6859 51.5574 38.7438 51.8873 38.551C52.2172 38.3582 52.3489 37.9877 52.1814 37.7236L51.9099 37.2951C51.7429 37.0307 51.3399 36.9725 51.0098 37.1649C51.0095 37.1651 51.0093 37.1652 51.0091 37.1653Z" fill="#3A556A"/>
<path d="M48.5478 38.5757C48.2179 38.7689 48.0864 39.1393 48.2539 39.4036L48.5255 39.8321C48.6929 40.0962 49.0961 40.1541 49.426 39.9613C49.7559 39.7685 49.8876 39.3981 49.7201 39.1339L49.4486 38.7054C49.2816 38.441 48.8786 38.3828 48.5485 38.5753C48.5482 38.5754 48.5479 38.5756 48.5478 38.5757Z" fill="#3A556A"/>
<path d="M46.0864 39.9861C45.7566 40.1793 45.6251 40.5497 45.7926 40.814L46.0642 41.2425C46.232 41.5064 46.6354 41.5636 46.9649 41.3706C47.2939 41.1779 47.4253 40.8082 47.2587 40.5444L46.9871 40.1159C46.8197 39.8516 46.4166 39.7934 46.0864 39.9861Z" fill="#3A556A"/>
<path d="M43.625 41.3965C43.2952 41.5897 43.1637 41.9601 43.3312 42.2244L43.6028 42.6529C43.7706 42.9168 44.1739 42.9741 44.5035 42.781C44.8325 42.5883 44.9639 42.2186 44.7972 41.9548L44.5257 41.5263C44.3583 41.262 43.9552 41.2038 43.625 41.3965Z" fill="#3A556A"/>
<path d="M41.1638 42.8068C40.834 43 40.7025 43.3704 40.87 43.6347L41.1416 44.0631C41.3094 44.327 41.7128 44.3843 42.0423 44.1913C42.3713 43.9986 42.5027 43.6289 42.3361 43.3651L42.0645 42.9366C41.897 42.6723 41.4939 42.6142 41.1638 42.8068Z" fill="#3A556A"/>
<path d="M38.7018 44.2175C38.3719 44.4103 38.2402 44.7807 38.4076 45.0449L38.408 45.0454L38.6795 45.4739C38.8474 45.7378 39.2507 45.7951 39.5803 45.6021C39.9092 45.4093 40.0407 45.0397 39.874 44.7759L39.6025 44.3474C39.4351 44.083 39.032 44.0249 38.7018 44.2175Z" fill="#3A556A"/>
<path d="M36.2411 45.6275C35.9112 45.8203 35.7795 46.1907 35.9469 46.4548L35.9473 46.4554L36.2189 46.8839C36.3867 47.1478 36.79 47.2051 37.1196 47.012C37.4486 46.8193 37.58 46.4497 37.4134 46.1858L37.1418 45.7573C36.9743 45.4931 36.5711 45.4349 36.2411 45.6275Z" fill="#3A556A"/>
</svg>
