<!-- <svg width="130" height="70" viewBox="0 0 130 70" fill="none" xmlns="http://www.w3.org/2000/svg">
<path fill-rule="evenodd" clip-rule="evenodd" d="M0 0H130V70H0V0Z" fill="white"/>
<path fill-rule="evenodd" clip-rule="evenodd" d="M41.2096 41.8512V28.1396H34.9286V41.8512H41.2096ZM50.7163 41.8512V31.6132H44.4347V41.8512H50.7163ZM50.7163 28.1396V30.6992H44.4347V28.1396H50.7163ZM2.67346 41.8512H10.4827L23.8937 31.0645C24.4028 30.5619 25.3369 30.653 25.252 31.2014V41.8509H31.5329V28.1396H19.7351L2.67346 41.8512Z" fill="black"/>
<path fill-rule="evenodd" clip-rule="evenodd" d="M12.8593 41.8512H23.2152V33.5328L12.8593 41.8512ZM96.2112 41.8512V28.1396H89.9309V41.8512H96.2112ZM105.718 41.8512V31.6132H99.4369V41.8512H105.718ZM105.718 28.1396V30.6992H99.4369V28.1396H105.718ZM59.6794 41.8505C58.3827 41.8504 57.1392 41.573 56.2224 41.0792C55.3056 40.5855 54.7905 39.9159 54.7905 39.2176V29.7851H60.0106V30.5829C60.0106 30.7212 60.0612 30.8581 60.1594 30.9858C60.2577 31.1135 60.4017 31.2295 60.5833 31.3272C60.7648 31.425 60.9804 31.5025 61.2176 31.5554C61.4548 31.6082 61.709 31.6354 61.9657 31.6354H66.5033V34.1727L62.4749 34.1498C61.3945 34.1498 60.5198 34.667 60.5198 35.2487V38.0327C60.5198 38.1709 60.5704 38.3078 60.6686 38.4355C60.7669 38.5632 60.9109 38.6792 61.0925 38.777C61.274 38.8747 61.4896 38.9522 61.7268 39.0051C61.964 39.058 62.2182 39.0851 62.4749 39.0851H67.1831V41.8512L59.6794 41.8505ZM118.62 31.4302C111.32 31.4302 109.878 32.8011 109.878 33.7155V34.6753H115.14C115.735 33.7155 117.516 33.1214 118.62 33.1214C119.724 33.1214 121.166 33.1668 121.166 34.1727C121.166 35.1787 118.79 35.3606 115.65 35.4982C112.432 35.6388 108.774 36.6407 108.774 38.926C108.774 41.2114 113.272 41.8512 115.904 41.8512L125.538 41.8563C126.316 41.8563 126.938 41.5393 126.938 41.1202V33.8528C126.939 32.8472 125.92 31.4302 118.62 31.4302ZM117.516 39.8405C115.904 39.8405 115.056 39.1545 115.056 38.6519C115.056 37.9205 116.413 37.0064 118.705 37.0064H121.336V39.8408L117.516 39.8405ZM77.7082 31.4302C70.4082 31.4302 68.9656 32.8011 68.9656 33.7155V34.6753H74.2282C74.8224 33.7155 76.6042 33.1214 77.7082 33.1214C78.8109 33.1214 80.2542 33.1668 80.2542 34.1727C80.2542 35.1787 77.8782 35.3606 74.7374 35.4982C71.5204 35.6388 67.8616 36.6407 67.8616 38.926C67.8616 41.2114 72.36 41.8512 74.9916 41.8512L84.6258 41.8563C85.4041 41.8563 86.026 41.5393 86.026 41.1202V33.8528C86.0266 32.8472 85.0082 31.4302 77.7082 31.4302ZM76.6042 39.8405C74.9916 39.8405 74.1425 39.1545 74.1425 38.6519C74.1425 37.9205 75.5022 37.0064 77.7925 37.0064H80.4242V39.8408L76.6042 39.8405Z" fill="black"/>
</svg> -->
<svg width="115" height="71" viewBox="0 0 115 71" fill="none" xmlns="http://www.w3.org/2000/svg">
<path fill-rule="evenodd" clip-rule="evenodd" d="M0.439575 10.3398C0.439575 4.817 4.91673 0.339844 10.4396 0.339844H104.44C109.962 0.339844 114.44 4.817 114.44 10.3398V60.3398C114.44 65.8627 109.962 70.3398 104.44 70.3398H10.4396C4.91673 70.3398 0.439575 65.8627 0.439575 60.3398V10.3398Z" fill="white"/>
<path fill-rule="evenodd" clip-rule="evenodd" d="M36.5772 42.1911V28.4795H31.0693V42.1911H36.5772ZM44.9139 42.1911V31.9531H39.4054V42.1911H44.9139ZM44.9139 28.4795V31.039H39.4054V28.4795H44.9139ZM2.784 42.1911H9.63206L21.3925 31.4043C21.839 30.9017 22.6581 30.9929 22.5836 31.5412V42.1907H28.0915V28.4795H17.7458L2.784 42.1911Z" fill="black"/>
<path fill-rule="evenodd" clip-rule="evenodd" d="M11.7162 42.1911H20.7975V33.8727L11.7162 42.1911ZM84.8093 42.1911V28.4795H79.302V42.1911H84.8093ZM93.146 42.1911V31.9531H87.6381V42.1911H93.146ZM93.146 28.4795V31.039H87.6381V28.4795H93.146ZM52.7738 42.1903C51.6367 42.1903 50.5463 41.9128 49.7423 41.4191C48.9383 40.9253 48.4866 40.2557 48.4866 39.5575V30.1249H53.0642V30.9228C53.0642 31.061 53.1086 31.1979 53.1947 31.3256C53.2809 31.4533 53.4072 31.5694 53.5664 31.6671C53.7256 31.7648 53.9147 31.8423 54.1227 31.8952C54.3307 31.9481 54.5536 31.9753 54.7787 31.9752H58.7578V34.5126L55.2253 34.4897C54.2778 34.4897 53.5107 35.0068 53.5107 35.5886V38.3725C53.5107 38.5108 53.5551 38.6476 53.6413 38.7753C53.7274 38.9031 53.8537 39.0191 54.013 39.1168C54.1722 39.2145 54.3612 39.2921 54.5692 39.3449C54.7772 39.3978 55.0001 39.425 55.2253 39.4249H59.354V42.1911L52.7738 42.1903ZM104.46 31.77C98.059 31.77 96.7939 33.1409 96.7939 34.0554V35.0152H101.409C101.93 34.0554 103.492 33.4612 104.46 33.4612C105.429 33.4612 106.693 33.5066 106.693 34.5126C106.693 35.5185 104.61 35.7004 101.855 35.8381C99.0342 35.9786 95.8258 36.9806 95.8258 39.2659C95.8258 41.5512 99.7705 42.1911 102.078 42.1911L110.527 42.1962C111.209 42.1962 111.755 41.8791 111.755 41.46V34.1926C111.755 33.1871 110.862 31.77 104.46 31.77ZM103.492 40.1803C102.078 40.1803 101.335 39.4943 101.335 38.9917C101.335 38.2603 102.525 37.3462 104.534 37.3462H106.842V40.1807L103.492 40.1803ZM68.5837 31.77C62.1822 31.77 60.9171 33.1409 60.9171 34.0554V35.0152H65.532C66.053 34.0554 67.6155 33.4612 68.5837 33.4612C69.5507 33.4612 70.8163 33.5066 70.8163 34.5126C70.8163 35.5185 68.7327 35.7004 65.9785 35.8381C63.1574 35.9786 59.949 36.9806 59.949 39.2659C59.949 41.5512 63.8937 42.1911 66.2015 42.1911L74.6499 42.1962C75.3324 42.1962 75.8777 41.8791 75.8777 41.46V34.1926C75.8783 33.1871 74.9852 31.77 68.5837 31.77ZM67.6155 40.1803C66.2015 40.1803 65.4569 39.4943 65.4569 38.9917C65.4569 38.2603 66.6492 37.3462 68.6576 37.3462H70.9654V40.1807L67.6155 40.1803Z" fill="black"/>
</svg>
