<!-- <svg width="131" height="71" viewBox="0 0 131 71" fill="none" xmlns="http://www.w3.org/2000/svg">
<path fill-rule="evenodd" clip-rule="evenodd" d="M0.560425 0.660034H130.56V70.66H0.560425V0.660034Z" fill="white"/>
<path fill-rule="evenodd" clip-rule="evenodd" d="M21.1049 26.2169C21.1049 26.2169 38.1908 32.9854 39.9976 33.6336C41.8037 34.3225 37.7389 32.7421 37.7389 32.7421C37.7389 32.7421 44.0617 34.6468 42.2549 37.2408C40.8251 39.3482 34.7283 40.1587 34.7283 40.1587C34.7283 40.1587 38.4167 40.4424 42.7816 39.7538C42.7816 39.7538 45.7174 39.2269 46.9968 38.7C48.2762 38.2141 48.7274 37.8487 48.7274 37.8487C48.7274 37.8487 52.1144 39.1459 53.0936 39.4299C54.1471 39.7135 64.9103 42.2258 65.4377 42.3478C66.04 42.4691 79.136 45.5091 79.136 45.5091C79.136 45.5091 60.1691 38.092 59.1149 37.6054C58.0615 37.1195 54.5234 35.701 56.631 33.35C56.631 33.35 58.0615 32.0532 61.2974 31.4452L62.2004 31.3236C62.2004 31.3236 58.8135 30.959 54.6738 31.8908C50.835 32.7421 50.3076 33.2686 50.3076 33.2686C50.3076 33.2686 47.6733 32.1338 46.2435 31.7692C44.7382 31.4042 33.749 28.9725 32.846 28.7292C31.9436 28.5269 21.1049 26.2169 21.1049 26.2169Z" fill="#938D5F"/>
<path fill-rule="evenodd" clip-rule="evenodd" d="M21.3307 25.8113C21.3307 25.8113 38.3412 32.5797 40.1473 33.2283C42.0289 33.9172 37.9648 32.3368 37.9648 32.3368C37.9648 32.3368 44.2121 34.2415 42.4808 36.8355C40.9755 38.9429 34.9542 39.7535 34.9542 39.7535C34.9542 39.7535 38.5664 40.0371 43.0075 39.3478C43.0075 39.3478 45.9433 38.8216 47.2227 38.2947C48.4272 37.8081 48.954 37.4434 48.954 37.4434C48.954 37.4434 52.2654 38.7399 53.3195 39.0239C54.2981 39.3075 65.0613 41.8205 65.6636 41.9418L79.2877 45.1031C79.2877 45.1031 60.3194 37.6868 59.266 37.2001C58.2125 36.7135 54.75 35.295 56.782 32.9447C56.782 32.9447 58.2867 31.6479 61.5239 31.0396L62.3515 30.9183C62.3515 30.9183 59.04 30.5533 54.9004 31.4856C50.9867 32.3368 50.5348 32.8634 50.5348 32.8634C50.5348 32.8634 47.825 31.7285 46.3952 31.3639C44.9654 30.9989 33.9007 28.5672 32.997 28.3239C32.0939 28.1217 21.3307 25.8113 21.3307 25.8113Z" fill="#2C2E32"/>
<path fill-rule="evenodd" clip-rule="evenodd" d="M105.857 32.4988V31.364H97.1264V39.2266H105.857V34.2416C105.857 34.2416 107.89 32.9851 110.976 32.9041C113.987 32.7824 115.568 33.3094 115.793 34.1199C116.095 34.9305 115.793 39.2266 115.793 39.2266H124.524V34.1199C124.524 34.1199 124.524 31.8099 118.127 31.4449C111.955 31.0397 110.073 31.4856 109.847 31.5259C109.622 31.5662 105.857 32.4988 105.857 32.4988ZM32.2444 37.6868C31.5673 37.6868 30.4383 37.8891 30.8139 36.1463C30.8139 36.1463 30.8139 33.9173 30.7391 33.4717C30.6635 33.0258 30.8139 32.0939 26.0727 31.5263C21.4063 30.959 17.4171 31.202 16.4385 31.2427C15.5354 31.3237 12.0729 31.5263 11.0188 31.6886C9.96534 31.8103 7.70668 32.1749 7.70668 32.1749V34.1203C7.70668 34.1203 12.0723 33.1474 15.3088 32.9854C20.1263 32.6611 21.782 33.4314 21.782 33.4314C21.782 33.4314 22.5346 33.9583 21.9331 34.161C21.3308 34.4039 17.5675 34.4853 13.1264 35.0118C8.68528 35.5388 5.59977 36.1467 6.42729 37.7275C6.42729 37.7275 7.25549 39.5106 14.1043 39.3893C20.8783 39.3076 22.5346 38.4977 22.5346 38.4977C22.5346 38.4977 23.7392 39.5509 27.8788 39.4296C31.9429 39.2673 35.4061 38.6594 35.4061 38.6594V37.2409C35.4061 37.2405 32.9222 37.6868 32.2444 37.6868ZM22.4598 37.5648C22.4598 37.5648 20.653 38.0111 18.8469 38.0917C17.1163 38.1727 16.137 37.9704 15.6103 37.7271C15.008 37.4838 14.9332 36.8759 16.5889 36.5113C18.2446 36.1863 19.2987 36.065 20.4271 35.9441C21.5561 35.822 22.4598 35.7817 22.4598 35.7817V37.5648ZM78.6861 31.2423C78.6861 31.2423 64.5353 30.999 63.6316 35.0521C62.7285 39.2266 78.6861 39.4296 78.6861 39.4296C78.6861 39.4296 93.4379 39.4699 93.2126 35.2145C93.0623 31.202 78.6861 31.2423 78.6861 31.2423ZM78.3847 37.8891C78.3847 37.8891 72.1368 37.9301 72.5886 35.1738C72.9657 32.4178 78.6099 32.7015 78.6099 32.7015C78.6099 32.7015 84.3304 32.4178 84.2556 35.2955C84.2556 38.1727 78.3847 37.8891 78.3847 37.8891Z" fill="#938D5F"/>
<path fill-rule="evenodd" clip-rule="evenodd" d="M84.18 42.9958C83.9534 43.0768 83.7282 43.1178 83.5778 43.1178C83.4274 43.1178 83.3512 43.0768 83.3512 42.9958V41.9012C83.3512 41.4153 82.3739 41.2127 81.1687 41.2127C80.2663 41.2127 79.5879 41.2937 79.136 41.4963V41.9419C79.6627 41.6993 80.3412 41.6176 81.0183 41.6176C81.7703 41.6176 82.1473 41.6993 82.1473 41.9829V42.1042L81.0939 42.2255C80.1153 42.3475 78.9863 42.4688 78.9863 42.9148C78.9863 43.1581 79.5885 43.4014 80.4916 43.4014C81.0183 43.4014 81.6206 43.3604 82.1473 43.1984C82.2222 43.36 82.5243 43.4014 83.051 43.4014C83.428 43.4014 83.6533 43.4014 84.18 43.2391V42.9958ZM82.148 42.9555C81.8479 43.0364 81.4709 43.1178 81.0945 43.1178C80.5678 43.1178 80.1908 42.9958 80.1908 42.8342C80.1908 42.5909 81.0945 42.4285 82.148 42.3072V42.9555ZM87.6419 41.253H86.438V43.3604H87.6419V41.253ZM87.7936 40.6048C87.7936 40.4827 87.4921 40.3615 87.1151 40.3615C86.6646 40.3615 86.3632 40.4827 86.3632 40.6048C86.3632 40.7261 86.6646 40.8481 87.1151 40.8481C87.4915 40.8481 87.7936 40.7261 87.7936 40.6048ZM90.6532 41.253V43.3604H91.857V42.2666C91.857 41.9012 92.5355 41.6176 93.3624 41.6176C93.6638 41.6176 94.1157 41.6993 94.4914 41.8206L95.0936 41.456C94.5669 41.2937 94.1164 41.2127 93.6645 41.2127C93.0622 41.2127 92.5355 41.3743 91.857 41.7396V41.253H90.6532ZM98.3302 40.1588H97.1264V43.3604H98.3302V40.1588ZM102.47 41.253H101.266V43.3604H102.47V41.253ZM102.622 40.6048C102.622 40.4827 102.245 40.3615 101.868 40.3615C101.492 40.3615 101.191 40.4827 101.191 40.6048C101.191 40.7261 101.491 40.8481 101.868 40.8481C102.245 40.8481 102.622 40.7261 102.622 40.6048ZM106.535 41.253H105.33V43.3604H106.535V41.8609C107.138 41.6176 107.514 41.5366 108.041 41.5366C108.793 41.5366 109.244 41.7396 109.244 42.0636V43.36H110.448V42.0636C110.448 41.4963 109.545 41.2123 108.416 41.2123C107.738 41.2123 107.061 41.3336 106.609 41.5366H106.535L106.535 41.253ZM118.427 42.7525C117.675 42.9148 116.997 43.0361 116.245 43.0361C115.116 43.0361 114.439 42.7928 114.212 42.3878H118.502C118.502 41.5773 117.449 41.2127 115.868 41.2127C114.212 41.2127 113.008 41.6583 113.008 42.3072C113.008 42.8745 114.062 43.4018 115.944 43.4018C116.997 43.4018 117.675 43.3201 118.428 43.1585L118.427 42.7525ZM114.287 42.1042C114.439 41.7799 114.966 41.5773 115.868 41.5773C116.772 41.5773 117.298 41.7803 117.298 42.1042H114.287ZM124.524 41.3743C123.846 41.253 123.32 41.2127 122.718 41.2127C121.514 41.2127 120.685 41.4157 120.685 41.7799C120.685 42.3472 123.546 42.5091 123.546 42.7928C123.546 42.9551 123.169 43.0361 122.642 43.0361C122.19 43.0361 121.438 42.9551 120.685 42.7525V43.2391C121.438 43.3604 122.04 43.4014 122.792 43.4014C123.921 43.4014 124.825 43.1581 124.825 42.7928C124.825 42.5502 124.448 42.4282 123.395 42.1848C122.341 41.9415 121.966 41.8606 121.966 41.7799C121.966 41.6579 122.266 41.5769 122.718 41.5769C123.169 41.5769 123.846 41.6579 124.524 41.7799V41.3743Z" fill="#2C2E32"/>
</svg> -->
<svg width="115" height="71" viewBox="0 0 115 71" fill="none" xmlns="http://www.w3.org/2000/svg">
<path fill-rule="evenodd" clip-rule="evenodd" d="M0.439575 10.34C0.439575 4.81712 4.91673 0.339966 10.4396 0.339966H104.44C109.962 0.339966 114.44 4.81712 114.44 10.34V60.34C114.44 65.8628 109.962 70.34 104.44 70.34H10.4396C4.91673 70.34 0.439575 65.8628 0.439575 60.34V10.34Z" fill="white"/>
<path fill-rule="evenodd" clip-rule="evenodd" d="M28.7515 28.4091C27.5888 28.1119 27.0249 29.7578 28.1198 30.2492C31.3781 31.7116 34.3629 33.0435 35.0229 33.3135V33.3135C35.1776 33.3808 35.6219 33.7 35.7596 33.7974C36.8818 34.5904 37.7626 35.6762 37.0024 36.9207C36.9516 37.0062 36.894 37.0896 36.8303 37.1708C36.2123 37.959 36.4621 39.6134 37.4479 39.4367V39.4367C37.4546 39.4355 37.4669 39.4332 37.4735 39.4319C37.6419 39.3971 40.0778 38.8885 41.1607 38.3799V38.3799C42.1337 37.9585 43.3052 37.8041 44.2817 38.2174C45.1288 38.5759 46.0796 38.9684 46.5071 39.1098C47.4309 39.3934 56.8694 41.9057 57.3319 42.0278V42.0278C58.5312 42.3032 59.1266 40.6191 58.0042 40.1148C54.833 38.6898 52.1436 37.4729 51.7874 37.2853C50.9206 36.8295 48.1359 35.5526 49.3217 33.4549C49.4899 33.1572 49.7274 32.9052 50.0009 32.6999C50.5679 32.2743 51.7666 31.5396 53.7012 31.1252V31.1252C53.8283 31.1056 53.8226 30.9526 53.6941 30.9474C52.5731 30.9022 50.389 30.93 47.8928 31.5708C47.8203 31.5891 47.7491 31.6073 47.6792 31.6253C45.4679 32.1963 42.693 32.0868 40.5001 31.4491V31.4491C39.18 31.0841 29.5434 28.6525 28.7515 28.4091V28.4091Z" fill="#938D5F"/>
<path fill-rule="evenodd" clip-rule="evenodd" d="M28.884 28.0039C27.7281 27.7086 27.1652 29.3428 28.2529 29.833C31.5069 31.2996 34.4929 32.6374 35.1542 32.9083V32.9083C35.3033 32.9705 35.8161 33.3092 35.9475 33.4032C37.055 34.1952 37.9255 35.2767 37.2005 36.5155C37.1487 36.5981 37.0908 36.6788 37.0274 36.7576C36.3905 37.548 36.644 39.2073 37.6437 39.0311V39.0311C37.6512 39.0297 37.6651 39.0272 37.6726 39.0257C37.8488 38.9893 40.2779 38.4823 41.3588 37.9746V37.9746C42.3322 37.5262 43.4891 37.3992 44.4748 37.82C45.3089 38.1761 46.2486 38.5635 46.7053 38.7038C47.5634 38.9874 57.0019 41.5005 57.53 41.6218V41.6218C58.7139 41.935 59.3112 40.237 58.1942 39.7351C54.9979 38.2992 52.278 37.0687 51.9198 36.8801C51.0808 36.4381 48.499 35.2274 49.3675 33.2479C49.5622 32.8041 49.9143 32.4504 50.3152 32.1779C50.9528 31.7445 52.1316 31.0984 53.8999 30.7195V30.7195C54.0223 30.6991 54.0174 30.5498 53.8935 30.5443C52.8087 30.4961 50.6273 30.5143 48.0916 31.1655C48.0381 31.1787 47.9855 31.1919 47.9335 31.205C45.7161 31.7637 42.8288 31.6823 40.6331 31.0438V31.0438C39.3793 30.6789 29.6765 28.2472 28.884 28.0039V28.0039Z" fill="#2C2E32"/>
<path fill-rule="evenodd" clip-rule="evenodd" d="M93.3976 32.0036C93.0856 32.0915 92.7764 31.8569 92.7764 31.5327V31.5327C92.7764 31.2628 92.5576 31.0439 92.2876 31.0439H88.9485C86.8343 31.0439 85.1205 32.7577 85.1205 34.8719V35.0786C85.1205 37.1927 86.8343 38.9065 88.9485 38.9065H89.4937C91.3067 38.9065 92.7764 37.4368 92.7764 35.6238V35.6238C92.7764 34.5565 93.2988 33.5417 94.2986 33.168C95.059 32.8838 96.0724 32.6197 97.2653 32.584C99.906 32.4624 101.292 32.9893 101.49 33.7999C101.557 34.0055 101.59 34.4356 101.602 34.9629C101.65 37.1012 103.297 38.9065 105.435 38.9065V38.9065C107.485 38.9065 109.146 37.2454 109.146 35.1962V33.7999C109.146 33.7999 109.146 33.7999 109.146 33.7999C109.146 33.7998 109.146 31.4898 103.537 31.1249C98.1241 30.7196 96.4734 31.1656 96.2759 31.2059C96.1329 31.235 94.3642 31.7315 93.3976 32.0036ZM28.224 37.3668C27.7692 37.3668 27.0819 37.4854 26.9331 36.7578C26.8083 36.1473 26.9707 35.5127 26.9642 34.8896C26.9571 34.2231 26.941 33.4032 26.9039 33.1516C26.8377 32.7057 26.9696 31.7738 22.8119 31.2062C18.7199 30.639 15.2216 30.8819 14.3634 30.9226C13.5715 31.0036 10.5352 31.2062 9.61078 31.3686C9.05533 31.4417 8.11778 31.6027 7.45844 31.7194C7.02221 31.7967 6.70631 32.1764 6.70631 32.6194V32.6194C6.70631 33.2183 7.27086 33.6605 7.85544 33.5305C9.20742 33.2299 11.5046 32.772 13.3728 32.6654C15.802 32.4789 17.3145 32.6543 18.1612 32.8371C18.7677 32.968 19.7694 33.5993 19.1957 33.8354C19.1911 33.8372 19.1865 33.8391 19.1818 33.8409C18.6536 34.0839 15.3535 34.1652 11.459 34.6918C7.73764 35.1953 5.10169 35.7727 5.50774 37.2022C5.54742 37.3419 5.61154 37.4755 5.70417 37.5873C6.07649 38.0369 7.49561 39.1666 12.3165 39.0692C13.3106 39.0555 14.179 39.0215 14.9359 38.9742C17.8077 38.795 21.5199 39.2056 24.3957 39.1095V39.1095C26.4766 39.0147 28.3779 38.7681 29.5999 38.5792C30.415 38.4532 30.9966 37.7456 30.9966 36.9208V36.9208C30.9966 36.9204 28.8184 37.3668 28.224 37.3668ZM19.6437 36.4985C19.6437 36.9399 19.3505 37.3266 18.9194 37.4215C18.3097 37.5557 17.3924 37.725 16.4754 37.7717C14.9578 37.8527 14.0991 37.6504 13.6372 37.4071C13.109 37.1638 13.0434 36.5558 14.4953 36.1912C15.9473 35.8662 16.8717 35.7449 17.8611 35.624C18.1292 35.5909 18.3829 35.5639 18.6102 35.542C19.1715 35.488 19.6437 35.9346 19.6437 36.4985V36.4985ZM69.0574 30.9225C68.9814 30.9221 68.9179 30.9216 68.8419 30.9208C67.6243 30.9085 56.4972 30.9011 55.7481 34.7321C54.9845 38.7573 67.9682 39.0899 68.8975 39.1086C68.9355 39.1093 68.9636 39.1096 69.0016 39.1095C69.8888 39.1066 81.8787 38.9925 81.6885 34.8944C81.5637 31.0999 70.2827 30.9298 69.0574 30.9225ZM68.9963 37.5765C68.7878 37.5753 68.5838 37.5704 68.3755 37.563C67.2223 37.5223 63.2639 37.2111 63.6028 34.8537C63.8639 32.6771 67.0061 32.3965 68.3157 32.3747C68.6948 32.3683 69.0712 32.3683 69.4503 32.3757C70.7612 32.4012 73.8857 32.7004 73.8338 34.9754C73.8338 37.4225 70.1098 37.5832 68.9963 37.5765Z" fill="#938D5F"/>
<path fill-rule="evenodd" clip-rule="evenodd" d="M73.7675 42.8405C73.7675 42.7618 73.6876 42.708 73.6124 42.7312C73.4696 42.7754 73.3367 42.7977 73.2394 42.7977C73.1075 42.7977 73.0407 42.7567 73.0407 42.6757V41.5812C73.0407 41.0953 72.1837 40.8926 71.1269 40.8926C70.405 40.8926 69.8466 40.96 69.4533 41.1256C69.3853 41.1543 69.3443 41.2227 69.3443 41.2965V41.2965C69.3443 41.4444 69.5031 41.542 69.6426 41.4927C70.049 41.3493 70.5223 41.2975 70.995 41.2975C71.6544 41.2975 71.985 41.3792 71.985 41.6629V41.6629C71.985 41.7323 71.9336 41.7909 71.8647 41.7999L71.0612 41.9055C70.2031 42.0275 69.213 42.1488 69.213 42.5947C69.213 42.838 69.7411 43.0813 70.5331 43.0813C70.73 43.0813 70.939 43.0739 71.1497 43.0528C71.6263 43.005 72.2986 43.0813 72.7775 43.0813V43.0813C73.0898 43.0813 73.2834 43.0813 73.6931 42.9445C73.7378 42.9296 73.7675 42.8875 73.7675 42.8405V42.8405ZM71.9856 42.3805C71.9856 42.532 71.8872 42.6674 71.7402 42.7042C71.5299 42.7568 71.2957 42.7977 71.0618 42.7977C70.5999 42.7977 70.2693 42.6757 70.2693 42.5141C70.2693 42.3059 70.8496 42.157 71.596 42.0423C71.802 42.0107 71.9856 42.1721 71.9856 42.3805V42.3805ZM76.8033 41.4608C76.8033 41.1693 76.567 40.9329 76.2755 40.9329V40.9329C75.9839 40.9329 75.7476 41.1693 75.7476 41.4608V42.5125C75.7476 42.804 75.9839 43.0403 76.2755 43.0403V43.0403C76.567 43.0403 76.8033 42.804 76.8033 42.5125V41.4608ZM76.9364 40.2847C76.9364 40.1627 76.672 40.0414 76.3414 40.0414C75.9463 40.0414 75.682 40.1627 75.682 40.2847C75.682 40.406 75.9463 40.528 76.3414 40.528C76.6714 40.528 76.9364 40.406 76.9364 40.2847ZM79.9719 40.9329C79.6803 40.9329 79.444 41.1693 79.444 41.4608V42.5125C79.444 42.804 79.6803 43.0403 79.9719 43.0403V43.0403C80.2634 43.0403 80.4997 42.804 80.4997 42.5125V41.9465C80.4997 41.5812 81.0947 41.2975 81.8197 41.2975C82.0509 41.2975 82.383 41.36 82.683 41.4568C82.763 41.4826 82.851 41.4721 82.9202 41.4243V41.4243C83.094 41.3043 83.0573 41.0397 82.8519 40.9898C82.5852 40.925 82.3352 40.8926 82.0847 40.8926C81.6391 40.8926 81.2406 41.0077 80.7696 41.2631C80.6496 41.3281 80.4997 41.244 80.4997 41.1075V41.1075C80.4997 41.0111 80.4215 40.9329 80.3251 40.9329H79.9719ZM86.1762 40.3666C86.1762 40.0751 85.9398 39.8387 85.6483 39.8387V39.8387C85.3568 39.8387 85.1205 40.0751 85.1205 40.3666V42.5125C85.1205 42.804 85.3568 43.0403 85.6483 43.0403V43.0403C85.9398 43.0403 86.1762 42.804 86.1762 42.5125V40.3666ZM89.8063 41.4608C89.8063 41.1692 89.57 40.9329 89.2785 40.9329V40.9329C88.9869 40.9329 88.7506 41.1692 88.7506 41.4608V42.5125C88.7506 42.804 88.9869 43.0403 89.2785 43.0403V43.0403C89.57 43.0403 89.8063 42.804 89.8063 42.5125V41.4608ZM89.9394 40.2847C89.9394 40.1627 89.6088 40.0414 89.2788 40.0414C88.9487 40.0414 88.685 40.1627 88.685 40.2847C88.685 40.406 88.9481 40.528 89.2788 40.528C89.6094 40.528 89.9394 40.406 89.9394 40.2847ZM93.3711 41.0747C93.3713 40.9965 93.3078 40.9329 93.2296 40.9329H92.8424C92.5509 40.9329 92.3145 41.1693 92.3145 41.4608V42.5119C92.3145 42.8037 92.5511 43.0403 92.8429 43.0403V43.0403C93.1348 43.0403 93.3714 42.8037 93.3714 42.5119V42.1262C93.3714 41.7694 93.5744 41.4306 93.9156 41.3263C94.1753 41.2469 94.4086 41.2165 94.6914 41.2165C95.3509 41.2165 95.7471 41.4196 95.7471 41.7435V42.5121C95.7471 42.8036 95.9834 43.0399 96.275 43.0399V43.0399C96.5665 43.0399 96.8028 42.8036 96.8028 42.5121V41.7435C96.8028 41.1762 96.0103 40.8923 95.0203 40.8923C94.4321 40.8923 93.8439 41.0113 93.4477 41.2108C93.4402 41.2146 93.4321 41.2165 93.4237 41.2165V41.2165C93.3945 41.2165 93.3708 41.1928 93.3709 41.1636L93.3711 41.0747ZM103.8 42.6835C103.8 42.5557 103.68 42.462 103.556 42.4911C102.991 42.6231 102.463 42.716 101.886 42.716V42.716C100.97 42.716 101.174 42.0678 102.09 42.0678H102.421C103.219 42.0678 103.727 41.3184 102.968 41.0729C102.591 40.951 102.11 40.8926 101.555 40.8926C100.104 40.8926 99.0479 41.3382 99.0479 41.9872C99.0479 42.5544 99.9716 43.0817 101.622 43.0817C102.475 43.0817 103.047 43.012 103.65 42.8741C103.738 42.8538 103.8 42.7744 103.8 42.6835V42.6835ZM101.742 41.7842C100.997 41.7842 100.811 41.2572 101.555 41.2572V41.2572C101.708 41.2572 101.848 41.2647 101.975 41.2791C102.556 41.3451 102.328 41.7842 101.742 41.7842V41.7842ZM109.146 41.2163C109.146 41.122 109.079 41.0404 108.987 41.0231C108.467 40.9259 108.042 40.8926 107.562 40.8926C106.506 40.8926 105.779 41.0956 105.779 41.4599C105.779 42.0271 108.288 42.1891 108.288 42.4727C108.288 42.635 107.958 42.716 107.496 42.716C107.158 42.716 106.628 42.6571 106.069 42.5139C105.924 42.4767 105.779 42.5838 105.779 42.7335V42.7335C105.779 42.841 105.856 42.9334 105.962 42.9511C106.54 43.0476 107.03 43.0813 107.628 43.0813C108.618 43.0813 109.41 42.838 109.41 42.4727C109.41 42.2301 109.08 42.1081 108.156 41.8648C107.232 41.6215 106.903 41.5405 106.903 41.4599C106.903 41.3378 107.166 41.2569 107.562 41.2569C107.905 41.2569 108.396 41.3175 108.907 41.413C109.03 41.4361 109.146 41.3421 109.146 41.2163V41.2163Z" fill="#2C2E32"/>
</svg>
