<svg width="115" height="80" viewBox="0 0 115 71" fill="none" xmlns="http://www.w3.org/2000/svg">
<path fill-rule="evenodd" clip-rule="evenodd" d="M0.439575 10.3398C0.439575 4.817 4.91673 0.339844 10.4396 0.339844H104.44C109.962 0.339844 114.44 4.817 114.44 10.3398V60.3398C114.44 65.8627 109.962 70.3398 104.44 70.3398H10.4396C4.91673 70.3398 0.439575 65.8627 0.439575 60.3398V10.3398Z" fill="white"/>
<g clip-path="url(#clip0_22_5)">
<path d="M55.4668 42.8474H52.5263C52.5077 42.8474 52.5077 42.8474 52.4984 42.8381L49.9673 39.7645L47.4362 42.8381C47.4269 42.8474 47.4176 42.8474 47.4082 42.8474H45.0539C45.0353 42.8474 45.026 42.8381 45.0167 42.8288C45.0167 42.8196 45.0167 42.8011 45.026 42.7918L48.7575 38.237L45.0726 33.7284C45.0633 33.7099 45.0633 33.7006 45.0633 33.6821C45.0726 33.6728 45.0819 33.6636 45.0912 33.6636H48.0317C48.041 33.6636 48.0503 33.6728 48.0596 33.6821L50.2837 36.4224L52.5449 33.6821C52.5542 33.6728 52.5635 33.6636 52.5728 33.6636H54.9643C54.9736 33.6636 54.9922 33.6728 55.0016 33.6821C55.0109 33.7006 55.0016 33.7099 54.9922 33.7284L51.5027 37.9037L55.5041 42.7918C55.5134 42.8011 55.5134 42.8196 55.5134 42.8288C55.4947 42.8474 55.4854 42.8474 55.4668 42.8474Z" fill="#072F54"/>
<path d="M71.3699 35.2746C70.0672 35.2746 69.1831 36.0615 68.9226 37.4224H73.352V37.3299C73.352 36.2467 72.5424 35.2746 71.3699 35.2746ZM75.6319 38.8296C75.6226 38.8389 75.6133 38.8481 75.6039 38.8481H68.8761C69.0156 40.4035 70.0299 41.2922 71.677 41.2922C72.6913 41.2922 73.7708 40.9497 75.2876 40.1442C75.3155 40.1257 75.3434 40.1535 75.3434 40.1813V42.2365C75.3434 42.255 75.3341 42.2643 75.3248 42.2643C73.9103 42.8568 72.4866 43.2641 71.3699 43.2641C68.4759 43.2641 66.3729 41.1626 66.3729 38.2742C66.3729 35.3857 68.4759 33.2842 71.3699 33.2842C74.0127 33.2842 75.7063 35.0524 75.7063 37.4872C75.7063 37.8853 75.6412 38.8019 75.6319 38.8296Z" fill="#072F54"/>
<path d="M89.2924 31.7564C88.4642 31.7564 87.7942 31.0991 87.7942 30.2937C87.7942 29.4605 88.4642 28.7847 89.2924 28.7847C90.1206 28.7847 90.7906 29.4605 90.7906 30.2937C90.7906 31.0991 90.1206 31.7564 89.2924 31.7564ZM88.0827 42.8473C88.0547 42.8473 88.0454 42.8381 88.0454 42.8103V33.6913C88.0454 33.6728 88.0547 33.6543 88.0734 33.6543H90.5021C90.5207 33.6543 90.53 33.6728 90.53 33.6913V42.8103C90.53 42.8381 90.5114 42.8473 90.4928 42.8473H88.0827Z" fill="#072F54"/>
<path d="M59.9148 41.4774C59.4775 41.4774 59.0308 41.4126 58.5097 41.283L58.519 35.432C59.1239 35.2376 59.645 35.1543 60.1661 35.1543C61.8504 35.1543 62.9763 36.3856 62.9763 38.2279C62.9763 40.1998 61.7759 41.4774 59.9148 41.4774ZM60.5755 33.2842C59.8869 33.2842 59.1983 33.4045 58.4725 33.6545H56.053C56.0344 33.6545 56.0158 33.673 56.0158 33.6915V48.643C56.7416 48.5411 57.635 48.2819 58.5097 47.6709V43.1253C59.1052 43.2086 59.5984 43.2641 60.073 43.2641C63.3858 43.2641 65.5261 41.2922 65.5261 38.2371C65.5261 35.3209 63.4881 33.2842 60.5755 33.2842Z" fill="#072F54"/>
<path d="M83.6625 40.718C82.9088 41.1161 82.2295 41.3013 81.5967 41.3013C80.0985 41.3013 79.1959 40.2459 79.1959 38.4776C79.1959 36.4409 80.3405 35.117 82.1178 35.117C82.611 35.117 83.0856 35.2374 83.6625 35.4966V40.718ZM83.6625 28.8309V33.5987C82.9553 33.3951 82.3319 33.3025 81.6991 33.3025C78.8144 33.3025 76.6462 35.4596 76.6462 38.3295C76.6462 41.1809 78.5631 43.2547 81.2059 43.2547C82.1178 43.2547 82.9739 43.0232 83.9789 42.5141V43.338C84.6396 43.2084 85.4027 42.9492 86.1564 42.4122V27.8496C85.4213 27.9514 84.5466 28.2014 83.6625 28.8309Z" fill="#072F54"/>
<path d="M98.9515 40.6995C98.2164 41.1161 97.5929 41.3198 97.0346 41.3198C95.4247 41.3198 94.4663 40.2644 94.4663 38.4961C94.4663 36.4872 95.6015 35.1355 97.2858 35.1355C97.7325 35.1355 98.2815 35.3114 98.9515 35.6632V40.6995ZM101.445 33.5432C101.445 33.4876 101.399 33.4414 101.343 33.4414H99.3796C99.3237 33.4414 99.2679 33.4876 99.2679 33.5432V33.8765H99.2214C98.3187 33.4784 97.5371 33.3025 96.7833 33.3025C94.0661 33.3025 91.9352 35.5429 91.9352 38.4128C91.9352 41.3105 93.8428 43.2547 96.681 43.2547C97.4347 43.2547 98.4118 43.1991 99.3237 42.1623V43.338C99.9658 43.1991 100.729 42.9307 101.445 42.4122V33.5432Z" fill="#072F54"/>
<path d="M38.3353 40.57H44.4305C44.3374 41.2458 44.1048 42.042 43.5837 42.8474H37.2466C36.4742 42.8474 35.8322 42.2456 35.7577 41.4957C35.7577 41.4865 35.7484 41.4772 35.7484 41.4587V29.4976C35.7484 29.4883 35.7577 29.479 35.7577 29.4698C35.8322 28.7106 36.4742 28.1089 37.2466 28.1089H44.4212C44.3281 28.7847 44.0955 29.5994 43.5651 30.4048H38.3353V33.6636H43.5185C43.5371 33.6636 43.5557 33.6821 43.5557 33.7006V35.9595C43.5557 35.9781 43.5371 35.9966 43.5185 35.9966H38.3353V40.57Z" fill="#072F54"/>
<path d="M30.7048 43.0417C30.1 43.0417 29.7277 42.5696 29.7277 41.9956C29.7277 41.3846 30.1558 40.9495 30.7048 40.9495C31.2445 40.9495 31.6726 41.3753 31.6726 41.9956C31.6726 42.6159 31.2445 43.0417 30.7048 43.0417ZM30.7048 40.8384C30.0907 40.8384 29.5602 41.3013 29.5602 41.9956C29.5602 42.6529 30.0348 43.1528 30.7048 43.1528C31.3097 43.1528 31.8401 42.6899 31.8401 41.9956C31.8401 41.3013 31.319 40.8384 30.7048 40.8384Z" fill="#072F54"/>
<path d="M30.4349 41.903V41.4772H30.7234C30.8723 41.4772 31.0398 41.4957 31.0398 41.6716C31.0398 41.8845 30.8816 41.8938 30.7048 41.8938C30.6955 41.903 30.4349 41.903 30.4349 41.903ZM31.2445 41.6994C31.2445 41.4216 31.077 41.3013 30.742 41.3013H30.2209V42.6714H30.4442V42.0882H30.6582L31.0119 42.6714H31.2724L30.8909 42.0697C31.0956 42.0512 31.2445 41.9493 31.2445 41.6994Z" fill="#072F54"/>
<path d="M103.455 35.1726C102.851 35.1726 102.478 34.7005 102.478 34.1265C102.478 33.5155 102.906 33.0804 103.455 33.0804C103.995 33.0804 104.423 33.5062 104.423 34.1265C104.423 34.7468 103.995 35.1726 103.455 35.1726ZM103.455 32.9785C102.841 32.9785 102.311 33.4414 102.311 34.1357C102.311 34.7931 102.785 35.293 103.455 35.293C104.06 35.293 104.591 34.8301 104.591 34.1357C104.591 33.4322 104.06 32.9785 103.455 32.9785Z" fill="#072F54"/>
<path d="M103.176 34.0339V33.6173H103.465C103.614 33.6173 103.781 33.6358 103.781 33.8117C103.781 34.0247 103.623 34.0339 103.446 34.0339H103.176ZM103.995 33.8395C103.995 33.5618 103.828 33.4414 103.493 33.4414H102.971V34.8116H103.195V34.2283H103.409L103.762 34.8116H104.023L103.641 34.2098C103.837 34.1913 103.995 34.0895 103.995 33.8395Z" fill="#072F54"/>
<path d="M22.8414 30.3956L22.4041 29.155L18.6446 24.165L19.3146 23.9984L25.782 29.5624L29.5879 28.4792C30.0346 28.3681 30.5464 28.3403 30.9279 28.3403C29.7368 25.7759 27.5407 23.6651 24.656 22.6467C18.9517 20.6193 12.6705 23.591 10.6419 29.2754C10.0091 31.0344 9.86951 32.8489 10.1301 34.5709L19.2402 31.4232L22.8414 30.3956Z" fill="#072F54"/>
<path d="M31.3376 29.3218C31.0026 29.5347 30.5094 29.8217 30.0255 29.9791L26.2102 31.0623L23.6698 39.1907L23.0091 39.4036L23.5488 33.2008L23.2511 31.914L19.6777 32.9323L10.2233 35.1265C10.9771 38.737 13.5454 41.8939 17.2955 43.2178C23.0091 45.2453 29.281 42.2735 31.319 36.5892C32.1937 34.1544 32.1378 31.5992 31.3376 29.3218Z" fill="#072F54"/>
<path d="M23.2418 31.9047L23.5395 33.1916L22.9998 39.3943L23.6605 39.1814L26.2009 31.053L30.0162 29.9698C30.5001 29.8124 30.9933 29.5347 31.3283 29.3125C31.2073 28.9792 31.077 28.6552 30.9281 28.3312C30.5373 28.3312 30.0348 28.3497 29.5881 28.4701L25.7822 29.5532L19.3148 23.9893L18.6448 24.1559L22.395 29.1459L22.8323 30.3864L19.2311 31.4141L10.121 34.5617C10.1489 34.7469 10.1861 34.9413 10.2233 35.1265L19.6684 32.9138L23.2418 31.9047Z" fill="#FBC108"/>
</g>
<defs>
<clipPath id="clip0_22_5">
<rect width="94.5907" height="26.6508" fill="white" transform="translate(10 22)"/>
</clipPath>
</defs>
</svg>


