<!-- <svg width="130" height="70" viewBox="0 0 130 70" fill="none" xmlns="http://www.w3.org/2000/svg">
<path d="M47.4424 34.7853H44.974V39.0759C44.974 39.8541 45.5387 40.0246 46.4076 40.0246C46.7379 40.0246 47.0901 39.9869 47.4424 39.9869V42.3614C46.7132 42.3802 45.9841 42.4554 45.2563 42.4554C41.8465 42.4554 40.9762 41.6585 40.9762 38.9807V34.7853H38.9546V32.6179H40.9762V29.5228H44.974V32.6179H47.4424V34.7853ZM67.5656 34.7853H65.0959V39.0759C65.0959 39.8541 65.6605 40.0246 66.5308 40.0246C66.8597 40.0246 67.2134 39.9869 67.5656 39.9869V42.3614C66.8365 42.3802 66.1073 42.4554 65.3782 42.4554C61.9683 42.4554 61.0994 41.6585 61.0994 38.9807V34.7853H59.0765V32.6179H61.0994V29.5228H65.0959V32.6179H67.5656V34.7853ZM26.1492 38.2607C26.1492 41.1422 24.3196 42.6 20.5739 42.6C16.3596 42.6 15 40.6374 15 37.7737V37.2158H18.9019V38.4047C18.9019 39.2515 19.4816 39.7197 20.5068 39.7197C21.4661 39.7197 22.0007 39.2869 22.0007 38.0438V29.4714H26.1492V38.2607ZM35.4644 36.4259C35.3944 35.3345 34.4392 34.43 33.1098 34.43C31.7104 34.43 30.7785 35.2404 30.5455 36.4259H35.4644ZM30.5455 38.2137C30.6154 39.5509 31.5706 40.4354 33.2496 40.4354C34.2048 40.4354 35.1382 40.0789 35.5123 39.3627H39.2169C38.4946 41.622 35.9071 42.6006 33.203 42.6006C29.2641 42.6006 26.5819 40.6811 26.5819 37.4045C26.5819 34.4113 29.5436 32.2649 33.1098 32.2649C37.4461 32.2649 39.6129 34.9017 39.4279 38.2137H30.5455ZM51.3389 39.1082C51.3389 39.5964 51.5938 39.954 51.9899 40.1975C52.3613 40.4233 52.8972 40.5351 53.455 40.5351C54.2225 40.5351 55.3148 40.2728 55.3148 39.5023C55.3148 38.7507 54.0827 38.6013 53.3851 38.4706C50.8962 37.9625 47.781 37.9072 47.781 35.277C47.781 32.9302 50.9222 32.2915 53.2919 32.2915C55.9425 32.2915 58.7096 32.9114 58.8494 35.4464H55.1996C55.1996 35.0335 55.0119 34.77 54.6871 34.6007C54.3623 34.4324 53.921 34.3571 53.4317 34.3571C52.7807 34.3571 51.735 34.4136 51.735 35.09C51.735 36.0098 54.3842 36.1781 56.1988 36.498C58.6411 36.8921 59.2675 38.319 59.2675 39.127C59.2675 41.7373 56.1988 42.6007 53.4783 42.6007C50.618 42.6007 47.6878 41.8313 47.5727 39.1082H51.3389ZM73.3914 40.6339C75.2704 40.6339 75.8953 39.7727 75.8022 37.769C75.2457 38.0491 74.2247 38.1055 73.3668 38.2926C72.4855 38.462 71.744 38.7609 71.744 39.5291C71.744 40.3161 72.5102 40.6339 73.3914 40.6339ZM68.289 35.596C68.3588 34.3219 69.1003 33.4972 70.1666 32.9925C71.2342 32.5043 72.6239 32.3172 73.9931 32.3172C76.8465 32.3172 79.604 32.8231 79.604 35.5772V39.8302C79.604 40.6527 79.604 41.5526 80.07 42.3208H76.1037C75.9653 42.0209 75.9173 41.7209 75.8721 41.4032C74.851 42.2644 73.3435 42.5998 71.9057 42.5998C69.6101 42.5998 67.8024 41.6645 67.8024 39.6608C67.8024 36.4938 72.0689 36.7385 74.8058 36.289C75.4774 36.1761 75.8488 35.989 75.8488 35.3901C75.8488 34.6585 74.7592 34.3773 73.9465 34.3773C72.8569 34.3773 72.1621 34.7714 71.9757 35.596H68.289ZM85.6787 32.9022C85.0756 33.2211 84.6069 33.6871 84.3218 34.2937H84.2766V32.5845H80.4391V42.3313H84.3918V37.505C84.3918 36.2851 85.4128 35.1948 87.3672 35.1948C87.8208 35.1948 88.2265 35.2512 88.6499 35.3365L85.6787 32.9022Z" fill="#100E0C"/>
<path fill-rule="evenodd" clip-rule="evenodd" d="M103.056 23.9094L103.571 30.5922H115L104.054 36.4425L106.468 46.0908L97.164 39.5642L84.6387 44.8167L92.1081 36.5477L85.0252 30.5922H96.4883L103.056 23.9094Z" fill="#5E6282"/>
</svg> -->
<svg width="114" height="70" viewBox="0 0 114 70" fill="none" xmlns="http://www.w3.org/2000/svg">
<rect width="114" height="70" rx="10" fill="white"/>
<path d="M39.3941 31.69H37.0816V37.8991C37.0816 39.0253 37.6106 39.272 38.4246 39.272C38.7341 39.272 39.0641 39.2175 39.3941 39.2175V42.6537C38.711 42.6809 38.0279 42.7898 37.3461 42.7898C34.1515 42.7898 33.3361 41.6365 33.3361 37.7613V31.69H31.4422V28.5534H33.3361V24.0743H37.0816V28.5534H39.3941V31.69ZM58.2468 31.69H55.933V37.8991C55.933 39.0253 56.462 39.272 57.2774 39.272C57.5855 39.272 57.9168 39.2175 58.2468 39.2175V42.6537C57.5637 42.6809 56.8806 42.7898 56.1975 42.7898C53.0029 42.7898 52.1889 41.6365 52.1889 37.7613V31.69H50.2937V28.5534H52.1889V24.0743H55.933V28.5534H58.2468V31.69ZM19.4453 36.7194C19.4453 40.8893 17.7312 42.999 14.222 42.999C10.2737 42.999 9 40.1588 9 36.0146V35.2072H12.6555V36.9277C12.6555 38.1532 13.1987 38.8308 14.1591 38.8308C15.0579 38.8308 15.5587 38.2044 15.5587 36.4055V24H19.4453V36.7194ZM28.1723 34.0642C28.1068 32.4847 27.2119 31.1758 25.9664 31.1758C24.6554 31.1758 23.7823 32.3485 23.564 34.0642H28.1723ZM23.564 36.6514C23.6295 38.5865 24.5244 39.8665 26.0974 39.8665C26.9923 39.8665 27.8667 39.3506 28.2172 38.3141H31.6879C31.0112 41.5838 28.5871 42.9999 26.0537 42.9999C22.3635 42.9999 19.8507 40.2221 19.8507 35.4803C19.8507 31.1487 22.6254 28.0425 25.9664 28.0425C30.029 28.0425 32.059 31.8584 31.8856 36.6514H23.564ZM43.0446 37.9459C43.0446 38.6523 43.2835 39.1698 43.6545 39.5222C44.0025 39.849 44.5046 40.0107 45.0271 40.0107C45.7462 40.0107 46.7695 39.6311 46.7695 38.5162C46.7695 37.4284 45.6152 37.2122 44.9617 37.0231C42.6299 36.2879 39.7114 36.2078 39.7114 32.4015C39.7114 29.0054 42.6542 28.0811 44.8743 28.0811C47.3576 28.0811 49.95 28.9782 50.081 32.6467H46.6616C46.6616 32.0492 46.4857 31.6679 46.1815 31.4228C45.8771 31.1792 45.4637 31.0703 45.0053 31.0703C44.3954 31.0703 43.4157 31.152 43.4157 32.1309C43.4157 33.4621 45.8977 33.7056 47.5977 34.1685C49.8858 34.7388 50.4726 36.8037 50.4726 37.9731C50.4726 41.7505 47.5977 43 45.049 43C42.3692 43 39.6241 41.8866 39.5162 37.9459H43.0446ZM63.7048 40.1537C65.4652 40.1537 66.0507 38.9074 65.9634 36.0078C65.4421 36.4131 64.4855 36.4948 63.6817 36.7656C62.8561 37.0107 62.1615 37.4432 62.1615 38.5549C62.1615 39.6939 62.8792 40.1537 63.7048 40.1537ZM58.9245 32.8632C58.99 31.0194 59.6846 29.8259 60.6836 29.0955C61.6838 28.389 62.9858 28.1183 64.2685 28.1183C66.9418 28.1183 69.5252 28.8503 69.5252 32.836V38.9907C69.5252 40.1809 69.5252 41.4833 69.9618 42.595H66.2458C66.1162 42.1609 66.0713 41.7268 66.0289 41.2671C65.0723 42.5134 63.6599 42.9987 62.3129 42.9987C60.1623 42.9987 58.4687 41.6451 58.4687 38.7456C58.4687 34.1624 62.4658 34.5165 65.0299 33.8661C65.6591 33.7027 66.0071 33.4319 66.0071 32.5653C66.0071 31.5064 64.9863 31.0995 64.2248 31.0995C63.2041 31.0995 62.5531 31.6698 62.3785 32.8632H58.9245ZM75.2163 28.9649C74.6513 29.4263 74.2122 30.1007 73.9451 30.9786H73.9028V28.5051H70.3075V42.6102H74.0106V35.6258C74.0106 33.8604 74.9672 32.2825 76.7982 32.2825C77.2232 32.2825 77.6033 32.3642 78 32.4876L75.2163 28.9649Z" fill="#100E0C"/>
<path fill-rule="evenodd" clip-rule="evenodd" d="M92.8046 20L93.3308 27.8332H105L93.8233 34.6907L96.2889 46L86.7887 38.3498L74 44.5066L81.6265 34.814L74.3946 27.8332H86.0989L92.8046 20Z" fill="#5E6282"/>
</svg>
