<svg width="115" height="81" viewBox="0 0 115 81" fill="none" xmlns="http://www.w3.org/2000/svg">
<g clip-path="url(#clip0_22_17)">
<path fill-rule="evenodd" clip-rule="evenodd" d="M0.352417 0.966309H114.352V80.9663H0.352417V0.966309Z" fill="white"/>
<mask id="mask0_22_17" style="mask-type:luminance" maskUnits="userSpaceOnUse" x="7" y="30" width="28" height="26">
<path d="M10.3607 30.719H7L7.25137 31.5646L8.36514 35.3203L14.4503 55.8619H34.4982L18.4336 35.1089C16.2911 32.3531 13.3868 30.719 10.3607 30.719Z" fill="white"/>
</mask>
<g mask="url(#mask0_22_17)">
<rect width="28.6825" height="26.5633" transform="matrix(1 0 0 -1 6.33282 56.6519)" fill="url(#paint0_linear_22_17)"/>
</g>
<path d="M8.36123 35.3203C10.5559 40.143 16.3162 40.6504 16.9427 48.1467C16.9678 48.4551 17.1515 48.7013 17.3913 48.7511C20.7094 49.4176 23.9424 51.1761 26.752 54.0712L26.7539 54.0736L26.8177 54.101L26.8873 54.0662L26.8912 53.8846C24.946 51.2557 22.5695 49.154 19.9011 47.7711L19.089 47.3508C18.6713 47.1344 18.3813 46.6022 18.3929 45.9878C18.4374 43.7494 22.556 44.2045 22.9737 43.1276L23.0452 42.941C22.1964 42.0084 21.1889 41.307 20.081 40.9165C20.0713 40.9712 20.0442 41.2324 20.2685 41.7049C20.5141 42.2198 20.0017 43.038 19.2514 42.1551L19.1876 42.083C13.6246 35.5243 9.45373 38.9243 7.24939 31.5647L8.36123 35.3203Z" fill="white"/>
<path d="M19.8838 42.5458V44.3316C20.4851 44.1102 21.1677 43.9709 21.7439 43.8142V42.8194C21.7439 42.8194 20.8313 42.8766 20.2724 41.7026C20.4368 42.0558 20.2531 42.5458 19.8838 42.5458Z" fill="url(#paint1_linear_22_17)"/>
<path d="M18.0797 48.9053C21.1561 49.6663 24.1378 51.375 26.752 54.0711C22.5696 49.4748 20.0191 48.7734 18.8454 48.7734C18.3833 48.7734 18.1339 48.8829 18.0797 48.9053Z" fill="url(#paint2_linear_22_17)"/>
<path d="M7.24939 31.5647L8.36316 35.3203C10.5559 40.143 16.3162 40.6503 16.9446 48.1442C16.3104 38.5785 13.0445 40.0087 9.53494 35.6561C8.62807 34.8254 7.86235 33.6116 7.24939 31.5647Z" fill="url(#paint3_linear_22_17)"/>
<path d="M36.6445 48.537C38.8083 48.537 40.6297 47.1591 40.6297 45.2713C40.6297 43.3811 38.8083 42.0057 36.6445 42.0057C34.4808 42.0057 32.6593 43.3836 32.6593 45.2713C32.6593 47.1591 34.4808 48.537 36.6445 48.537ZM36.5304 51.2455C32.5665 51.2455 30.0508 48.5967 30.0508 45.2713C30.0508 41.8888 32.7154 39.2971 36.6445 39.2971C40.5737 39.2971 43.2382 41.9037 43.2382 45.1395C43.2382 46.5895 42.7374 47.7784 41.7802 48.7733H44.1141L43.5573 50.0044C43.2034 50.7804 42.7722 51.248 41.8363 51.248H36.5304V51.2455Z" fill="#323232"/>
<path d="M48.6716 46.8087H52.7941L50.8818 42.4288C50.8373 42.3268 50.8025 42.297 50.7348 42.297C50.6671 42.297 50.6323 42.3268 50.5879 42.4288L48.6716 46.8087ZM53.8518 49.2238H47.612L46.7245 51.2459H44.1373L48.4647 41.6081C48.807 40.847 49.2962 40.26 50.2746 40.26H51.2434C52.2237 40.26 52.7129 40.8445 53.0532 41.6081L57.3826 51.2459H54.7413L53.8518 49.2238Z" fill="#323232"/>
<path d="M69.7019 40.2601V51.2459H67.3912L60.6041 43.9659V51.2459H58.2915V40.2601H59.7379C60.4784 40.2601 60.8536 40.5088 61.2751 40.9764L67.3912 47.5251V40.2576H69.7019V40.2601Z" fill="#323232"/>
<path d="M77.9237 42.7372V51.2459H75.6111V42.7372H70.8737V40.26H82.6591V42.7372H77.9237Z" fill="#323232"/>
<path d="M85.1748 46.8087H89.2973L87.3849 42.4288C87.3385 42.3268 87.3056 42.297 87.238 42.297C87.1703 42.297 87.1355 42.3268 87.0891 42.4288L85.1748 46.8087ZM90.3569 49.2238H84.1171L83.2296 51.2459H80.6443L84.9718 41.6081C85.314 40.847 85.8032 40.26 86.7816 40.26H87.7504C88.7307 40.26 89.2199 40.8445 89.5603 41.6081L93.8877 51.2459H91.2464L90.3569 49.2238Z" fill="#323232"/>
<path d="M94.6825 50.4547L94.4678 50.3676L95.0479 47.9799C96.7089 48.6689 98.4859 48.945 100.091 48.945C102.722 48.945 103.37 48.5495 103.37 48.1242C103.37 47.9501 103.279 47.8158 103.074 47.7287C102.811 47.6118 102.082 47.4203 99.9303 46.9677C97.55 46.4702 96.4807 46.219 95.6957 45.7514C94.9106 45.2838 94.4311 44.5377 94.4311 43.4384C94.4311 42.6027 94.7501 41.9286 95.2626 41.4014C96.1733 40.4935 97.7318 40.1279 99.4295 40.1279C101.616 40.1279 103.45 40.3617 105.488 41.0059L105.669 41.078L105.18 43.406C102.902 42.7768 101.64 42.6002 99.9091 42.5703C98.6909 42.5554 97.8478 42.6723 97.4031 42.8464C97.1517 42.9509 97.0492 43.0976 97.0492 43.2717C97.0492 43.4334 97.1285 43.5801 97.3799 43.6821C97.6525 43.799 98.0973 43.9333 100.431 44.4158C102.96 44.9431 103.792 45.162 104.486 45.5152C105.432 45.9827 106 46.8483 106 47.9327C106 49.2957 105.18 50.3055 103.757 50.8626C102.881 51.2008 101.707 51.3899 100.387 51.3899C98.3177 51.3924 96.1056 51.0392 94.6825 50.4547Z" fill="#323232"/>
</g>
<defs>
<linearGradient id="paint0_linear_22_17" x1="14.3413" y1="0" x2="14.3413" y2="26.5633" gradientUnits="userSpaceOnUse">
<stop offset="0.9999"/>
<stop offset="1" stop-color="white" stop-opacity="0"/>
</linearGradient>
<linearGradient id="paint1_linear_22_17" x1="20.729" y1="44.4268" x2="21.026" y2="41.7874" gradientUnits="userSpaceOnUse">
<stop stop-color="white"/>
<stop offset="0.65" stop-color="white"/>
<stop offset="0.95" stop-color="#A2A5A3"/>
<stop offset="1" stop-color="#A2A5A3"/>
</linearGradient>
<linearGradient id="paint2_linear_22_17" x1="18.0795" y1="51.4227" x2="26.7521" y2="51.4227" gradientUnits="userSpaceOnUse">
<stop stop-color="white"/>
<stop offset="0.9" stop-color="#A2A5A3"/>
<stop offset="1" stop-color="#A2A5A3"/>
</linearGradient>
<linearGradient id="paint3_linear_22_17" x1="7.24888" y1="39.8543" x2="16.9443" y2="39.8543" gradientUnits="userSpaceOnUse">
<stop stop-color="white"/>
<stop offset="0.43" stop-color="white"/>
<stop offset="1" stop-color="#A2A5A3"/>
</linearGradient>
<clipPath id="clip0_22_17">
<rect x="0.352417" y="0.966309" width="114" height="80" rx="10" fill="white"/>
</clipPath>
</defs>
</svg>
